<!DOCTYPE svg PUBLIC "-//W3C//DTD SVG 20010904//EN" "http://www.w3.org/TR/2001/REC-SVG-20010904/DTD/svg10.dtd">
<svg version="1.0" xmlns="http://www.w3.org/2000/svg" width="630px" height="585px" viewBox="0 0 6300 5850" preserveAspectRatio="xMidYMid meet">
<g id="layer101" fill="#171616" stroke="none">
 <path d="M2890 5840 l-265 -5 -135 -94 c-74 -52 -137 -97 -140 -100 -3 -3 -39 -28 -80 -56 -105 -69 -209 -147 -324 -244 -73 -61 -105 -81 -120 -78 -57 14 -224 58 -246 66 -14 5 -63 19 -110 32 -47 12 -89 26 -94 31 -6 4 -18 8 -28 8 -17 0 -145 34 -358 96 -47 13 -119 34 -160 45 -191 53 -216 61 -238 70 -13 5 -34 9 -47 9 -13 0 -27 5 -30 10 -3 6 -22 10 -41 10 -31 0 -37 -4 -51 -37 -8 -21 -22 -65 -30 -98 -8 -33 -18 -69 -23 -80 -5 -11 -15 -47 -24 -80 -16 -66 -55 -203 -86 -305 -11 -36 -34 -114 -51 -175 -17 -60 -40 -139 -50 -175 -11 -36 -24 -83 -30 -105 -6 -22 -19 -67 -29 -100 -10 -33 -24 -80 -30 -105 -7 -25 -16 -53 -21 -62 -11 -22 -12 -71 -1 -83 5 -6 14 -30 21 -55 7 -25 22 -67 32 -94 10 -27 19 -58 19 -70 0 -12 4 -26 8 -31 5 -6 14 -30 21 -55 7 -25 17 -54 21 -65 4 -11 18 -54 30 -95 12 -41 26 -83 31 -92 5 -10 9 -29 9 -42 0 -14 4 -27 9 -30 4 -3 14 -27 21 -53 6 -27 15 -57 20 -68 4 -11 22 -67 40 -125 18 -58 36 -114 40 -125 11 -29 25 -70 50 -155 13 -41 27 -83 31 -92 19 -39 10 -80 -28 -122 -21 -23 -63 -73 -93 -110 -30 -38 -72 -87 -92 -110 -21 -22 -38 -43 -38 -46 0 -3 22 -23 50 -45 27 -22 50 -44 50 -50 0 -5 -39 -49 -86 -96 l-86 -87 66 -52 c36 -28 66 -56 66 -61 0 -12 -37 -45 -112 -101 -32 -23 -58 -47 -58 -54 0 -6 25 -28 55 -50 30 -21 55 -46 55 -54 0 -8 -7 -46 -15 -85 -15 -69 -47 -222 -105 -505 -16 -80 -41 -199 -55 -265 -14 -66 -25 -131 -25 -145 0 -14 43 -156 95 -315 53 -160 118 -360 146 -445 28 -85 55 -159 60 -165 8 -8 49 1 104 25 11 5 49 19 85 31 36 12 70 25 75 29 6 4 28 13 50 19 22 7 49 16 60 21 34 14 225 86 345 130 63 23 130 49 149 57 18 8 45 19 60 23 14 5 69 24 121 44 52 19 122 44 155 56 33 12 79 30 102 41 24 10 51 19 61 19 10 0 22 4 28 8 15 14 115 52 135 52 9 0 19 3 21 8 2 4 35 18 73 30 69 23 92 32 138 52 12 5 49 19 82 30 33 12 69 25 80 30 68 29 110 30 921 30 817 0 834 0 891 -21 63 -22 99 -37 125 -50 10 -5 22 -9 28 -9 6 0 29 -8 53 -18 23 -11 69 -29 102 -41 33 -13 69 -26 80 -31 11 -4 70 -27 130 -50 152 -58 253 -97 450 -174 94 -36 173 -66 178 -66 4 0 26 -8 50 -18 23 -11 80 -33 127 -51 47 -18 95 -37 108 -42 45 -18 69 -28 152 -59 47 -17 123 -47 170 -65 108 -44 189 -70 195 -63 5 5 187 530 205 593 5 17 33 98 62 181 l52 151 -12 69 c-7 38 -19 98 -27 134 -7 36 -21 108 -30 160 -9 52 -23 120 -30 150 -25 98 -95 464 -95 491 0 20 13 36 55 68 30 23 52 47 49 54 -3 6 -41 39 -84 71 -84 62 -96 83 -57 109 12 8 36 26 52 41 17 14 33 26 38 26 23 0 -3 37 -73 101 -49 46 -80 82 -80 94 0 12 18 36 45 58 25 21 45 41 45 45 0 4 -16 25 -36 47 -124 139 -224 266 -224 284 0 11 27 102 60 203 33 101 74 226 91 278 16 52 34 104 38 115 5 11 28 81 51 155 23 74 46 144 50 155 4 11 17 52 29 90 12 39 26 79 30 90 22 53 81 249 81 269 0 22 -7 49 -49 191 -10 33 -24 80 -31 105 -7 25 -16 56 -20 70 -4 14 -12 43 -18 65 -6 22 -24 85 -41 140 -17 55 -31 108 -31 118 0 10 -4 26 -10 36 -5 10 -21 60 -35 112 -15 52 -30 108 -35 124 -5 17 -17 64 -28 105 -11 41 -27 95 -35 120 -8 25 -23 73 -33 108 -10 35 -24 67 -30 73 -9 7 -35 4 -86 -11 -67 -19 -94 -26 -183 -51 -16 -5 -61 -18 -100 -29 -38 -11 -86 -24 -105 -29 -106 -28 -218 -59 -325 -90 -38 -11 -90 -25 -115 -32 -25 -7 -63 -17 -85 -24 -22 -7 -101 -29 -175 -50 -74 -20 -159 -43 -188 -52 -29 -8 -61 -13 -71 -10 -9 2 -84 55 -167 117 -82 62 -273 191 -424 286 l-275 174 -210 -2 c-115 -1 -329 -5 -475 -8z m-270 -1940 c0 -5 -31 -74 -68 -152 -38 -79 -81 -171 -97 -205 -19 -42 -34 -63 -46 -63 -15 0 -127 50 -387 171 -34 16 -66 29 -71 29 -5 0 -14 6 -20 14 -13 15 -8 17 359 125 113 33 228 66 255 75 60 18 75 19 75 6z m1245 -51 c116 -33 224 -64 240 -69 46 -12 208 -60 224 -66 13 -4 13 -7 0 -18 -23 -22 -467 -219 -481 -213 -13 4 -51 76 -157 297 -50 102 -59 130 -43 130 4 0 102 -27 217 -61z"/>
 </g>
<g id="layer102" fill="#753e17" stroke="none">
 <path d="M2890 5840 l-265 -5 -135 -94 c-74 -52 -137 -97 -140 -100 -3 -3 -39 -28 -80 -56 -105 -69 -209 -147 -324 -244 -73 -61 -105 -81 -120 -78 -57 14 -224 58 -246 66 -14 5 -63 19 -110 32 -47 12 -89 26 -94 31 -6 4 -18 8 -28 8 -17 0 -145 34 -358 96 -47 13 -119 34 -160 45 -191 53 -216 61 -238 70 -13 5 -34 9 -47 9 -13 0 -27 5 -30 10 -3 6 -22 10 -41 10 -31 0 -37 -4 -51 -37 -8 -21 -22 -65 -30 -98 -8 -33 -18 -69 -23 -80 -5 -11 -15 -47 -24 -80 -16 -66 -55 -203 -86 -305 -11 -36 -34 -114 -51 -175 -17 -60 -40 -139 -50 -175 -11 -36 -24 -83 -30 -105 -6 -22 -19 -67 -29 -100 -10 -33 -24 -80 -30 -105 -7 -25 -16 -53 -21 -62 -11 -22 -12 -71 -1 -83 5 -6 14 -30 21 -55 7 -25 22 -67 32 -94 10 -27 19 -58 19 -70 0 -12 4 -26 8 -31 5 -6 14 -30 21 -55 7 -25 17 -54 21 -65 4 -11 18 -54 30 -95 12 -41 26 -83 31 -92 5 -10 9 -29 9 -42 0 -14 4 -27 9 -30 4 -3 14 -27 21 -53 6 -27 15 -57 20 -68 4 -11 22 -67 40 -125 18 -58 36 -114 40 -125 11 -29 25 -70 50 -155 13 -41 27 -83 31 -92 19 -39 10 -80 -28 -122 -21 -23 -63 -73 -93 -110 -30 -38 -72 -87 -92 -110 -21 -22 -38 -43 -38 -46 0 -3 22 -23 50 -45 27 -22 50 -44 50 -50 0 -5 -39 -49 -86 -96 l-86 -87 66 -52 c36 -28 66 -56 66 -61 0 -12 -37 -45 -112 -101 -32 -23 -58 -47 -58 -54 0 -6 25 -28 55 -50 30 -21 55 -46 55 -54 0 -8 -7 -46 -15 -85 -15 -69 -47 -222 -105 -505 -16 -80 -41 -199 -55 -265 -14 -66 -25 -131 -25 -145 0 -14 43 -156 95 -315 53 -160 118 -360 146 -445 28 -85 55 -159 60 -165 8 -8 49 1 104 25 11 5 49 19 85 31 36 12 70 25 75 29 6 4 28 13 50 19 22 7 49 16 60 21 34 14 225 86 345 130 63 23 130 49 149 57 18 8 45 19 60 23 14 5 69 24 121 44 52 19 122 44 155 56 33 12 79 30 102 41 24 10 51 19 61 19 10 0 22 4 28 8 15 14 115 52 135 52 9 0 19 3 21 8 2 4 35 18 73 30 69 23 92 32 138 52 12 5 49 19 82 30 33 12 69 25 80 30 68 29 110 30 921 30 817 0 834 0 891 -21 63 -22 99 -37 125 -50 10 -5 22 -9 28 -9 6 0 29 -8 53 -18 23 -11 69 -29 102 -41 33 -13 69 -26 80 -31 11 -4 70 -27 130 -50 152 -58 253 -97 450 -174 94 -36 173 -66 178 -66 4 0 26 -8 50 -18 23 -11 80 -33 127 -51 47 -18 95 -37 108 -42 45 -18 69 -28 152 -59 47 -17 123 -47 170 -65 108 -44 189 -70 195 -63 5 5 187 530 205 593 5 17 33 98 62 181 l52 151 -12 69 c-7 38 -19 98 -27 134 -7 36 -21 108 -30 160 -9 52 -23 120 -30 150 -25 98 -95 464 -95 491 0 20 13 36 55 68 30 23 52 47 49 54 -3 6 -41 39 -84 71 -84 62 -96 83 -57 109 12 8 36 26 52 41 17 14 33 26 38 26 23 0 -3 37 -73 101 -49 46 -80 82 -80 94 0 12 18 36 45 58 25 21 45 41 45 45 0 4 -16 25 -36 47 -124 139 -224 266 -224 284 0 11 27 102 60 203 33 101 74 226 91 278 16 52 34 104 38 115 5 11 28 81 51 155 23 74 46 144 50 155 4 11 17 52 29 90 12 39 26 79 30 90 22 53 81 249 81 269 0 22 -7 49 -49 191 -10 33 -24 80 -31 105 -7 25 -16 56 -20 70 -4 14 -12 43 -18 65 -6 22 -24 85 -41 140 -17 55 -31 108 -31 118 0 10 -4 26 -10 36 -5 10 -21 60 -35 112 -15 52 -30 108 -35 124 -5 17 -17 64 -28 105 -11 41 -27 95 -35 120 -8 25 -23 73 -33 108 -10 35 -24 67 -30 73 -9 7 -35 4 -86 -11 -67 -19 -94 -26 -183 -51 -16 -5 -61 -18 -100 -29 -38 -11 -86 -24 -105 -29 -106 -28 -218 -59 -325 -90 -38 -11 -90 -25 -115 -32 -25 -7 -63 -17 -85 -24 -22 -7 -101 -29 -175 -50 -74 -20 -159 -43 -188 -52 -29 -8 -61 -13 -71 -10 -9 2 -84 55 -167 117 -82 62 -273 191 -424 286 l-275 174 -210 -2 c-115 -1 -329 -5 -475 -8z m216 -520 c458 0 471 1 489 20 10 11 22 20 27 20 9 0 2 -116 -13 -195 -5 -27 -13 -99 -19 -158 -14 -160 -20 -176 -84 -219 l-54 -36 -331 -6 c-365 -6 -365 -6 -443 59 -32 27 -37 37 -43 90 -3 33 -12 110 -20 170 -8 61 -16 139 -20 175 -3 36 -8 81 -11 100 l-7 35 30 -27 29 -28 470 0z m-486 -1420 c0 -5 -31 -74 -68 -152 -38 -79 -81 -171 -97 -205 -19 -42 -34 -63 -46 -63 -15 0 -127 50 -387 171 -34 16 -66 29 -71 29 -5 0 -14 6 -20 14 -13 15 -8 17 359 125 113 33 228 66 255 75 60 18 75 19 75 6z m1245 -51 c116 -33 224 -64 240 -69 46 -12 208 -60 224 -66 13 -4 13 -7 0 -18 -23 -22 -467 -219 -481 -213 -13 4 -51 76 -157 297 -50 102 -59 130 -43 130 4 0 102 -27 217 -61z"/>
 </g>
<g id="layer103" fill="#cf6018" stroke="none">
 <path d="M2890 5840 l-265 -5 -135 -94 c-74 -52 -137 -97 -140 -100 -3 -3 -39 -28 -80 -56 -105 -69 -209 -147 -324 -244 -73 -61 -105 -81 -120 -78 -57 14 -224 58 -246 66 -14 5 -63 19 -110 32 -47 12 -89 26 -94 31 -6 4 -18 8 -28 8 -17 0 -145 34 -358 96 -47 13 -119 34 -160 45 -191 53 -216 61 -238 70 -13 5 -34 9 -47 9 -13 0 -27 5 -30 10 -3 6 -22 10 -41 10 -31 0 -37 -4 -51 -37 -8 -21 -22 -65 -30 -98 -8 -33 -18 -69 -23 -80 -5 -11 -15 -47 -24 -80 -16 -66 -55 -203 -86 -305 -11 -36 -34 -114 -51 -175 -17 -60 -40 -139 -50 -175 -11 -36 -24 -83 -30 -105 -6 -22 -19 -67 -29 -100 -10 -33 -24 -80 -30 -105 -7 -25 -16 -53 -21 -62 -11 -22 -12 -71 -1 -83 5 -6 14 -30 21 -55 7 -25 22 -67 32 -94 10 -27 19 -58 19 -70 0 -12 4 -26 8 -31 5 -6 14 -30 21 -55 7 -25 17 -54 21 -65 4 -11 18 -54 30 -95 12 -41 26 -83 31 -92 5 -10 9 -29 9 -42 0 -14 4 -27 9 -30 4 -3 14 -27 21 -53 6 -27 15 -57 20 -68 4 -11 22 -67 40 -125 18 -58 36 -114 40 -125 11 -29 25 -70 50 -155 13 -41 27 -83 31 -92 5 -10 9 -29 9 -43 0 -17 6 -25 16 -25 16 0 106 -24 209 -56 28 -8 104 -31 170 -50 66 -19 156 -45 200 -59 139 -42 397 -116 490 -141 50 -13 108 -30 130 -38 22 -8 51 -17 65 -20 14 -3 41 -20 61 -38 20 -18 103 -89 184 -158 82 -69 185 -156 229 -195 43 -38 113 -98 155 -133 42 -35 92 -78 111 -96 19 -17 67 -58 107 -91 40 -32 74 -64 77 -70 2 -7 -50 -52 -117 -101 -67 -49 -179 -132 -249 -184 -70 -52 -153 -114 -185 -137 -32 -23 -67 -49 -78 -58 -11 -8 -96 -72 -190 -141 -93 -68 -208 -153 -255 -188 -47 -35 -200 -148 -340 -251 -140 -104 -313 -232 -385 -285 -71 -53 -193 -143 -270 -200 -234 -172 -275 -204 -271 -207 2 -2 16 1 32 8 16 6 38 15 49 20 11 4 49 18 85 30 36 12 70 25 75 29 6 4 28 13 50 19 22 7 49 16 60 21 34 14 225 86 345 130 63 23 130 49 149 57 18 8 45 19 60 23 14 5 69 24 121 44 52 19 122 44 155 56 33 12 79 30 102 41 24 10 51 19 61 19 10 0 22 4 28 8 15 14 115 52 135 52 9 0 19 3 21 8 2 4 35 18 73 30 69 23 92 32 138 52 12 5 49 19 82 30 33 12 69 25 80 30 68 29 110 30 921 30 817 0 834 0 891 -21 63 -22 99 -37 125 -50 10 -5 22 -9 28 -9 6 0 29 -8 53 -18 23 -11 69 -29 102 -41 33 -13 69 -26 80 -31 11 -4 70 -27 130 -50 152 -58 253 -97 450 -174 94 -36 173 -66 178 -66 4 0 26 -8 50 -18 23 -11 80 -33 127 -51 47 -18 95 -37 108 -42 45 -18 69 -28 152 -59 47 -17 124 -47 171 -66 47 -19 99 -38 115 -43 16 -5 38 -12 49 -16 11 -5 -117 95 -285 220 -168 125 -320 240 -339 254 -18 14 -46 35 -61 46 -135 98 -201 147 -341 253 -46 35 -95 72 -109 82 -14 11 -75 56 -136 102 -62 46 -125 93 -140 105 -16 12 -121 90 -234 174 -223 166 -598 445 -644 481 -16 13 -36 28 -44 34 -13 9 -9 16 23 45 21 19 43 39 49 44 6 6 25 21 41 34 17 12 53 42 80 66 288 251 720 606 744 611 14 4 109 31 211 61 102 30 210 61 241 69 31 7 67 17 80 23 13 5 60 19 104 31 44 12 91 26 105 31 14 5 34 11 45 13 11 2 112 31 225 64 113 33 220 63 238 67 17 4 32 13 32 20 0 8 27 96 60 197 33 101 74 226 91 278 16 52 34 104 38 115 5 11 28 81 51 155 23 74 46 144 50 155 4 11 17 52 29 90 12 39 26 79 30 90 22 53 81 249 81 269 0 22 -7 49 -49 191 -10 33 -24 80 -31 105 -7 25 -16 56 -20 70 -4 14 -12 43 -18 65 -6 22 -24 85 -41 140 -17 55 -31 108 -31 118 0 10 -4 26 -10 36 -5 10 -21 60 -35 112 -15 52 -30 108 -35 124 -5 17 -17 64 -28 105 -11 41 -27 95 -35 120 -8 25 -23 73 -33 108 -10 35 -24 67 -30 73 -9 7 -35 4 -86 -11 -67 -19 -94 -26 -183 -51 -16 -5 -61 -18 -100 -29 -38 -11 -86 -24 -105 -29 -106 -28 -218 -59 -325 -90 -38 -11 -90 -25 -115 -32 -25 -7 -63 -17 -85 -24 -22 -7 -101 -29 -175 -50 -74 -20 -159 -43 -188 -52 -29 -8 -61 -13 -71 -10 -9 2 -84 55 -167 117 -82 62 -273 191 -424 286 l-275 174 -210 -2 c-115 -1 -329 -5 -475 -8z m215 -520 l469 0 29 28 30 27 -7 -75 c-3 -41 -13 -124 -21 -185 -8 -60 -19 -151 -26 -201 l-12 -92 -58 -41 -58 -41 -342 0 -343 0 -63 41 c-35 23 -63 46 -63 53 0 10 -10 98 -45 396 -8 69 -15 129 -15 134 0 6 13 -2 28 -17 l28 -27 469 0z m-485 -1420 c0 -5 -31 -74 -68 -152 -38 -79 -81 -171 -97 -205 -19 -42 -34 -63 -46 -63 -15 0 -127 50 -387 171 -34 16 -66 29 -71 29 -5 0 -14 6 -20 14 -13 15 -8 17 359 125 113 33 228 66 255 75 60 18 75 19 75 6z m1245 -51 c116 -33 224 -64 240 -69 46 -12 208 -60 224 -66 13 -4 13 -7 0 -18 -23 -22 -467 -219 -481 -213 -13 4 -51 76 -157 297 -50 102 -59 130 -43 130 4 0 102 -27 217 -61z"/>
 </g>
<g id="layer104" fill="#ed7e1d" stroke="none">
 <path d="M2890 5840 l-265 -5 -135 -94 c-74 -52 -137 -97 -140 -100 -3 -3 -39 -28 -80 -56 -105 -69 -209 -147 -324 -244 -73 -61 -105 -81 -120 -78 -57 14 -224 58 -246 66 -14 5 -63 19 -110 32 -47 12 -89 26 -94 31 -6 4 -18 8 -28 8 -17 0 -145 34 -358 96 -47 13 -119 34 -160 45 -191 53 -216 61 -238 70 -13 5 -34 9 -47 9 -13 0 -27 5 -30 10 -3 6 -22 10 -41 10 -31 0 -37 -4 -51 -37 -8 -21 -22 -65 -30 -98 -8 -33 -18 -69 -23 -80 -5 -11 -15 -47 -24 -80 -16 -66 -55 -203 -86 -305 -11 -36 -34 -114 -51 -175 -17 -60 -40 -139 -50 -175 -11 -36 -24 -83 -30 -105 -6 -22 -19 -67 -29 -100 -10 -33 -24 -80 -30 -105 -7 -25 -16 -53 -21 -62 -11 -22 -12 -71 -1 -83 5 -6 14 -30 21 -55 7 -25 22 -67 32 -94 10 -27 19 -58 19 -70 0 -12 4 -26 8 -31 5 -6 14 -30 21 -55 7 -25 17 -54 21 -65 4 -11 18 -54 30 -95 12 -41 26 -83 31 -92 5 -10 9 -29 9 -42 0 -14 4 -27 9 -30 4 -3 14 -27 21 -53 6 -27 15 -57 20 -68 4 -11 22 -67 40 -125 18 -58 36 -114 40 -125 11 -29 25 -70 50 -155 13 -41 27 -83 31 -92 5 -10 9 -28 9 -41 0 -14 6 -23 18 -24 9 -1 96 -25 192 -53 96 -28 274 -80 395 -115 121 -35 327 -95 458 -133 l237 -69 103 -86 c56 -47 114 -96 128 -109 15 -13 48 -41 74 -63 42 -35 97 -82 256 -219 20 -17 90 -76 155 -131 65 -55 137 -117 159 -138 l40 -37 -26 -23 c-15 -12 -39 -31 -54 -42 -32 -23 -245 -181 -260 -192 -26 -21 -357 -264 -405 -298 -30 -22 -57 -42 -60 -45 -3 -3 -23 -19 -45 -36 -22 -16 -44 -32 -50 -37 -13 -10 -392 -289 -430 -317 -16 -12 -109 -80 -205 -151 -96 -71 -186 -137 -199 -147 -14 -9 -55 -41 -93 -69 -38 -29 -73 -53 -78 -53 -6 0 -13 -7 -16 -15 -4 -8 -10 -15 -15 -15 -6 0 -15 -5 -22 -10 -44 -38 -61 -50 -66 -50 -4 0 -20 -12 -37 -27 -17 -16 -57 -46 -89 -68 -31 -22 -62 -45 -68 -51 -7 -6 -41 -31 -76 -57 -77 -57 -77 -57 24 -16 11 4 49 18 85 30 36 12 70 25 75 29 6 4 28 13 50 19 22 7 49 16 60 21 34 14 225 86 345 130 63 23 130 49 149 57 18 8 45 19 60 23 14 5 69 24 121 44 52 19 122 44 155 56 33 12 79 30 102 41 24 10 51 19 61 19 10 0 22 4 28 8 15 14 115 52 135 52 9 0 19 3 21 8 2 4 35 18 73 30 69 23 92 32 138 52 12 5 49 19 82 30 33 12 69 25 80 30 68 29 110 30 921 30 817 0 834 0 891 -21 63 -22 99 -37 125 -50 10 -5 22 -9 28 -9 6 0 29 -8 53 -18 23 -11 69 -29 102 -41 33 -13 69 -26 80 -31 11 -4 70 -27 130 -50 152 -58 253 -97 450 -174 94 -36 173 -66 178 -66 4 0 26 -8 50 -18 23 -11 80 -33 127 -51 47 -18 95 -37 108 -42 45 -18 69 -28 152 -59 47 -17 123 -47 170 -65 106 -43 175 -66 164 -56 -5 5 -56 43 -114 85 -58 43 -112 83 -120 89 -8 7 -33 26 -55 42 -22 17 -41 33 -43 38 -2 4 -8 7 -13 7 -5 0 -17 7 -26 15 -10 8 -79 60 -153 115 -74 55 -144 107 -155 115 -11 9 -132 100 -270 203 -137 102 -255 191 -262 197 -6 5 -28 21 -48 35 -36 24 -188 139 -212 160 -7 6 -34 25 -59 42 -26 17 -74 53 -108 79 -33 27 -65 52 -71 56 -5 5 -27 19 -47 33 -21 14 -38 28 -38 33 0 4 -4 7 -9 7 -12 0 -145 99 -149 111 -2 5 -8 9 -13 9 -5 0 -17 7 -26 15 -37 30 -152 116 -250 187 -56 40 -103 78 -103 85 0 6 57 59 128 118 70 58 141 119 157 134 17 15 66 56 110 92 43 35 86 71 95 79 9 8 63 53 119 100 57 47 142 119 190 160 48 41 93 80 101 87 9 6 119 41 245 78 127 36 244 71 260 76 17 5 116 34 220 64 477 136 504 144 533 156 13 5 34 9 47 9 15 0 25 6 25 14 0 8 27 97 60 198 33 101 74 226 91 278 16 52 34 104 38 115 5 11 28 81 51 155 23 74 46 144 50 155 4 11 17 52 29 90 12 39 26 79 30 90 22 53 81 249 81 269 0 22 -7 49 -49 191 -10 33 -24 80 -31 105 -7 25 -16 56 -20 70 -4 14 -12 43 -18 65 -6 22 -24 85 -41 140 -17 55 -31 108 -31 118 0 10 -4 26 -10 36 -5 10 -21 60 -35 112 -15 52 -30 108 -35 124 -5 17 -17 64 -28 105 -11 41 -27 95 -35 120 -8 25 -23 73 -33 108 -10 35 -24 67 -30 73 -9 7 -35 4 -86 -11 -67 -19 -94 -26 -183 -51 -16 -5 -61 -18 -100 -29 -38 -11 -86 -24 -105 -29 -106 -28 -218 -59 -325 -90 -38 -11 -90 -25 -115 -32 -25 -7 -63 -17 -85 -24 -22 -7 -101 -29 -175 -50 -74 -20 -159 -43 -188 -52 -29 -8 -61 -13 -71 -10 -9 2 -84 55 -167 117 -82 62 -273 191 -424 286 l-275 174 -210 -2 c-115 -1 -329 -5 -475 -8z m215 -520 l469 0 29 28 30 27 -7 -75 c-3 -41 -13 -124 -21 -185 -8 -60 -19 -151 -26 -201 l-12 -92 -58 -41 -58 -41 -346 0 -345 0 -60 41 c-33 22 -60 46 -60 52 0 11 -10 98 -45 397 -8 69 -15 129 -15 134 0 6 13 -2 28 -17 l28 -27 469 0z m1407 -140 c7 -8 12 -16 10 -18 -1 -1 18 -33 43 -70 25 -37 83 -125 130 -197 47 -71 94 -143 105 -160 39 -58 217 -331 254 -389 20 -32 35 -60 32 -63 -5 -6 -746 -4 -756 2 -8 5 -7 7 20 200 11 77 22 160 25 185 3 25 7 61 10 80 2 19 7 53 9 75 5 41 27 205 47 353 l11 83 24 -33 c13 -18 29 -40 36 -48z m-2668 -31 c3 -30 11 -101 16 -159 6 -58 12 -116 15 -130 2 -14 7 -50 10 -80 7 -68 15 -144 20 -190 2 -19 9 -82 15 -140 6 -58 13 -119 15 -136 l4 -31 -241 -6 c-388 -11 -508 -9 -508 7 0 7 29 56 65 107 35 52 78 118 95 147 17 29 39 61 50 72 11 11 29 39 40 62 11 24 31 55 44 69 13 14 32 41 41 60 10 19 33 52 51 75 19 23 34 44 34 48 0 9 172 270 185 278 5 4 7 8 3 8 -5 0 0 8 10 18 16 17 17 17 23 -4 4 -11 9 -45 13 -75z m785 -1296 c6 -32 14 -71 17 -88 25 -143 57 -317 74 -400 11 -55 22 -117 26 -137 l7 -38 -79 -1 c-44 -1 -104 -3 -134 -5 -30 -1 -176 -8 -325 -13 -148 -6 -322 -13 -385 -16 -384 -16 -452 -17 -449 -7 2 6 125 134 272 285 l269 275 81 25 c45 14 174 52 287 86 113 33 228 66 255 75 28 8 55 15 61 15 6 1 16 -25 23 -56z m1236 -4 c116 -33 224 -64 240 -69 17 -5 75 -21 130 -37 l99 -28 285 -282 c157 -156 282 -285 279 -288 -8 -9 -26 -9 -188 -1 -80 3 -262 11 -405 16 -459 18 -519 21 -565 24 -25 2 -86 4 -135 5 l-91 1 1 38 c1 20 4 44 7 52 5 13 51 259 62 335 3 17 10 55 15 85 6 30 16 90 22 133 7 42 17 77 23 77 6 0 106 -27 221 -61z"/>
 </g>
<g id="layer105" fill="#cab6a8" stroke="none">
 <path d="M2890 5840 l-265 -5 -135 -94 c-74 -52 -137 -97 -140 -100 -3 -3 -39 -28 -80 -56 -186 -123 -422 -315 -410 -334 4 -7 10 -12 14 -11 10 3 240 -122 244 -132 2 -4 9 -8 16 -8 16 0 218 -110 227 -123 3 -5 9 -8 13 -8 3 1 38 -16 78 -36 134 -71 180 -94 184 -90 3 3 -2 55 -40 382 -9 72 -16 134 -16 139 0 6 13 -2 28 -17 l28 -27 469 0 469 0 29 28 30 27 -7 -75 c-6 -69 -20 -186 -46 -379 -6 -41 -8 -76 -6 -78 2 -3 17 2 34 11 16 8 32 12 36 9 3 -4 6 -2 6 4 0 10 133 76 146 73 4 -1 10 3 13 8 8 13 267 142 286 142 8 0 15 4 15 9 0 9 44 28 46 20 0 -2 8 4 18 14 10 9 22 15 27 12 5 -4 9 -2 9 3 0 9 140 78 153 74 4 -1 7 3 7 8 0 5 3 9 8 8 4 -2 18 5 32 14 22 16 23 19 7 30 -9 7 -78 60 -154 117 -76 57 -262 181 -413 277 l-275 174 -210 -2 c-115 -1 -329 -5 -475 -8z"/>
 </g>

</svg>