<!DOCTYPE svg PUBLIC "-//W3C//DTD SVG 20010904//EN" "http://www.w3.org/TR/2001/REC-SVG-20010904/DTD/svg10.dtd">
<svg version="1.0" xmlns="http://www.w3.org/2000/svg" width="888px" height="794px" viewBox="0 0 8880 7940" preserveAspectRatio="xMidYMid meet">
<g id="layer101" fill="#040303" stroke="none">
<path d="M4345 7930 c-137 -15 -397 -124 -548 -229 -40 -28 -110 -86 -157 -128 -47 -43 -157 -137 -245 -209 -109 -90 -275 -246 -525 -495 -362 -362 -472 -463 -666 -615 -56 -43 -144 -114 -197 -157 -139 -113 -244 -172 -472 -267 -36 -15 -117 -43 -154 -53 -20 -5 -193 -13 -386 -17 -382 -8 -390 -9 -514 -72 -108 -56 -191 -172 -226 -319 -28 -122 -15 -379 26 -507 6 -18 9 -36 6 -39 -10 -10 -93 35 -159 85 -47 36 -76 52 -98 52 -35 0 -34 19 -20 -250 7 -130 14 -189 29 -230 41 -117 81 -219 130 -333 28 -65 51 -123 51 -128 0 -5 -48 -6 -112 -2 l-111 6 7 -65 c17 -170 88 -342 281 -679 158 -276 200 -337 310 -459 112 -122 113 -128 71 -253 -32 -96 -108 -286 -162 -404 -103 -228 -190 -517 -214 -713 -7 -52 -19 -122 -27 -155 -11 -42 -17 -137 -20 -317 -4 -213 -3 -272 11 -348 21 -111 55 -218 92 -285 41 -74 176 -203 260 -247 104 -55 248 -98 328 -98 124 0 500 158 731 307 210 137 327 246 480 449 69 91 150 185 206 237 l91 87 31 -18 c17 -9 78 -62 136 -117 165 -156 459 -337 721 -444 347 -141 492 -185 725 -220 300 -46 470 -46 770 0 233 35 378 79 725 220 262 107 556 288 721 444 58 55 119 108 136 117 l31 18 91 -87 c56 -52 137 -146 206 -237 153 -203 270 -312 480 -449 231 -149 607 -307 731 -307 80 0 224 43 328 98 84 44 219 173 260 247 37 67 71 174 92 286 14 76 16 134 11 348 -3 181 -9 272 -20 311 -8 30 -20 100 -27 155 -25 207 -112 493 -222 734 -47 102 -144 348 -167 424 -26 87 -20 103 84 217 110 122 152 183 310 459 193 337 264 509 281 679 l7 65 -111 -6 c-64 -4 -112 -3 -112 2 0 5 23 63 51 128 49 114 89 216 130 333 15 41 22 100 29 230 14 269 15 250 -20 250 -21 0 -51 -15 -96 -50 -65 -50 -151 -96 -161 -86 -3 2 0 20 6 38 41 128 54 385 26 507 -35 147 -118 263 -226 319 -124 63 -132 64 -514 72 -192 4 -366 12 -385 17 -137 40 -329 122 -449 192 -40 24 -130 89 -199 145 -69 55 -159 128 -201 160 -163 126 -290 244 -646 599 -247 247 -418 408 -515 487 -80 64 -188 156 -240 204 -121 110 -212 173 -347 240 -136 68 -275 114 -378 126 -87 11 -91 11 -180 0z"/>
</g>
<g id="layer102" fill="#97591e" stroke="none">
<path d="M3720 7094 c-206 -125 -242 -154 -503 -416 -243 -243 -353 -346 -457 -428 -74 -58 -120 -100 -243 -218 -130 -125 -223 -190 -355 -248 -48 -21 -265 -126 -482 -235 -217 -108 -447 -222 -510 -253 -126 -61 -231 -139 -298 -219 -58 -71 -126 -205 -157 -313 -39 -131 -32 -215 28 -363 25 -61 43 -111 41 -111 -3 0 -23 12 -45 26 -105 66 -223 113 -321 127 -46 7 -46 7 -19 -125 24 -118 75 -276 146 -447 30 -74 54 -136 52 -137 -1 -1 -48 16 -105 39 -56 22 -104 38 -107 35 -10 -9 17 -174 32 -198 28 -44 195 -200 263 -245 36 -23 90 -55 121 -71 l57 -27 68 49 c166 118 273 246 429 514 37 63 109 176 160 250 148 216 166 265 180 479 19 300 101 492 294 681 148 146 324 255 561 350 175 70 376 176 630 335 187 117 290 175 290 165 0 -5 -53 -87 -117 -182 -64 -95 -136 -202 -160 -238 -24 -36 -67 -111 -96 -168 l-52 -102 -100 -31 c-55 -17 -143 -51 -195 -77 -158 -77 -279 -216 -354 -405 -55 -137 -54 -226 4 -393 l31 -92 -60 -83 c-34 -46 -93 -147 -133 -224 -71 -140 -93 -177 -248 -440 -99 -168 -336 -638 -427 -848 -36 -84 -83 -190 -105 -237 -122 -259 -209 -476 -308 -765 -32 -93 -71 -204 -86 -245 -54 -151 -123 -401 -144 -525 -20 -110 -22 -149 -17 -289 6 -177 13 -206 69 -283 86 -119 192 -173 343 -173 116 0 155 13 324 111 153 88 263 173 319 247 l43 57 -48 6 c-70 8 -115 -3 -248 -64 -66 -30 -137 -57 -158 -61 -100 -18 -257 123 -257 232 0 69 111 580 159 727 54 170 194 536 266 700 61 137 104 243 147 365 16 47 100 229 185 405 85 176 180 380 209 453 48 116 156 338 244 497 15 28 47 86 70 130 24 44 70 125 102 179 32 54 57 100 56 101 -2 1 -38 25 -81 55 -63 43 -85 66 -121 124 -65 104 -80 159 -73 264 6 99 26 154 85 229 45 56 107 93 228 133 l86 30 116 -60 c63 -33 118 -60 122 -60 4 0 50 84 103 188 53 103 143 262 200 353 121 193 180 310 237 464 22 61 62 145 88 188 l47 78 8 -38 c5 -21 6 -92 3 -158 -4 -94 -13 -149 -41 -255 -38 -145 -98 -417 -114 -515 -5 -33 -24 -96 -41 -140 -43 -107 -86 -233 -155 -450 -48 -149 -76 -216 -165 -390 -59 -115 -142 -293 -185 -395 -43 -102 -118 -275 -166 -386 -144 -330 -216 -523 -304 -824 -69 -233 -86 -323 -92 -485 -8 -224 19 -356 112 -550 58 -119 132 -230 203 -302 62 -63 344 -268 484 -352 48 -28 156 -85 240 -125 393 -189 539 -226 888 -226 349 0 495 37 888 226 84 40 192 97 240 125 140 84 422 289 484 352 71 72 145 183 203 302 93 194 120 326 112 550 -6 162 -23 252 -92 485 -88 301 -160 494 -304 824 -48 111 -123 284 -166 386 -43 102 -126 280 -185 395 -89 174 -117 241 -165 390 -69 217 -112 343 -155 450 -17 44 -36 107 -41 140 -16 98 -76 370 -114 515 -28 106 -37 161 -41 255 -3 66 -2 137 3 158 l8 38 47 -78 c26 -43 66 -127 88 -188 57 -154 116 -271 237 -464 57 -91 147 -250 200 -353 53 -104 99 -188 103 -188 9 0 200 99 217 112 15 12 154 -32 237 -75 110 -58 175 -167 183 -309 7 -105 -8 -160 -73 -264 -36 -58 -58 -81 -121 -124 -43 -30 -79 -54 -81 -56 -2 -1 14 -30 36 -65 126 -206 365 -668 436 -841 29 -73 124 -277 209 -453 85 -176 169 -358 185 -405 43 -122 86 -228 147 -365 75 -170 226 -569 276 -730 44 -143 149 -635 149 -697 0 -74 -74 -170 -162 -212 -72 -34 -95 -30 -242 36 -60 27 -121 54 -135 60 -26 10 -159 13 -168 4 -11 -10 88 -119 160 -175 87 -69 293 -191 374 -221 76 -28 221 -28 298 1 99 37 208 144 243 239 8 20 16 102 19 196 5 140 3 179 -17 289 -21 124 -90 374 -144 525 -15 41 -54 152 -86 245 -99 289 -186 506 -308 765 -22 47 -69 153 -105 237 -91 210 -328 680 -427 848 -155 263 -177 300 -248 440 -40 77 -99 178 -133 224 l-60 83 31 92 c58 167 59 256 4 393 -75 191 -194 327 -354 405 -52 26 -140 60 -195 77 l-100 31 -52 102 c-29 57 -72 132 -96 168 -24 36 -96 143 -160 238 -64 95 -117 177 -117 182 0 10 97 -45 295 -168 263 -163 450 -262 625 -332 237 -95 413 -204 561 -350 193 -189 275 -381 294 -681 13 -200 40 -280 146 -429 70 -97 140 -207 224 -350 136 -230 239 -350 399 -465 l69 -49 72 37 c94 49 145 86 247 178 117 107 135 136 147 238 6 47 9 87 6 89 -3 3 -51 -13 -107 -35 -57 -23 -104 -40 -105 -39 -2 1 22 63 52 137 71 171 122 329 146 447 27 132 27 132 -18 125 -99 -14 -217 -61 -322 -127 -22 -14 -42 -26 -45 -26 -2 0 16 50 41 111 60 148 67 232 28 363 -31 108 -99 242 -157 313 -67 80 -172 158 -298 219 -63 31 -293 145 -510 253 -217 109 -434 214 -482 235 -132 58 -225 123 -355 248 -123 118 -169 160 -243 218 -104 82 -214 185 -457 428 -214 214 -275 270 -358 324 -141 91 -225 141 -231 135 -3 -3 -12 -34 -20 -68 -30 -131 -42 -157 -79 -169 -55 -18 -183 -47 -283 -65 -220 -38 -560 -10 -787 65 -39 13 -50 39 -89 213 -4 15 -10 27 -14 27 -4 0 -41 -21 -82 -46z"/>
</g>
<g id="layer103" fill="#b27242" stroke="none">
<path d="M3720 7094 c-209 -127 -240 -153 -525 -439 -154 -154 -314 -307 -355 -340 -41 -33 -77 -62 -80 -65 -3 -3 -27 -23 -55 -45 -27 -22 -108 -96 -180 -164 -141 -135 -229 -198 -363 -257 -48 -21 -238 -114 -422 -207 -443 -224 -441 -223 -470 -232 -56 -16 -221 -110 -286 -161 -38 -31 -88 -79 -112 -107 -58 -71 -126 -205 -157 -313 -39 -131 -32 -215 28 -363 25 -61 43 -111 41 -111 -3 0 -23 12 -45 26 -105 66 -223 113 -321 127 -46 7 -46 7 -19 -125 24 -118 75 -276 146 -447 30 -74 54 -136 52 -137 -1 -1 -48 16 -105 39 -56 22 -104 38 -107 35 -10 -10 17 -174 32 -198 29 -44 196 -200 265 -246 36 -24 92 -56 123 -69 l56 -25 32 22 c195 135 297 254 462 538 37 63 109 176 160 250 148 216 166 265 180 479 19 300 101 492 294 681 148 146 324 255 561 350 175 70 362 169 625 332 198 123 295 178 295 168 0 -5 -53 -87 -117 -182 -190 -281 -200 -297 -255 -405 l-53 -103 -100 -31 c-55 -17 -143 -51 -195 -77 -158 -77 -279 -216 -354 -405 -55 -138 -54 -226 4 -395 l32 -92 -30 -38 c-50 -63 -99 -145 -193 -323 -49 -94 -112 -205 -138 -247 -96 -155 -172 -293 -310 -569 -120 -241 -142 -292 -152 -355 -23 -151 5 -229 135 -365 l40 -42 41 102 c23 56 78 174 122 262 173 344 284 576 332 697 27 69 146 307 221 443 15 28 47 86 70 130 24 44 70 125 102 179 32 54 57 100 56 101 -2 1 -37 25 -80 53 -63 43 -84 64 -121 124 -66 106 -81 160 -74 266 6 99 26 154 85 229 49 61 105 91 289 154 166 56 246 96 348 175 110 84 109 83 218 257 120 190 180 308 237 462 22 61 62 145 88 188 l47 78 8 -38 c5 -21 6 -92 3 -158 -4 -94 -13 -149 -41 -255 -39 -148 -98 -418 -115 -520 -5 -36 -28 -110 -50 -165 -21 -55 -67 -185 -101 -290 -102 -316 -98 -306 -266 -640 -49 -99 -116 -243 -148 -320 -32 -77 -97 -230 -146 -341 -144 -329 -215 -522 -304 -824 -69 -233 -86 -323 -92 -485 -8 -226 19 -359 114 -550 24 -49 48 -94 52 -98 13 -13 119 111 154 178 17 33 48 98 69 145 21 47 43 94 48 105 25 54 126 302 200 495 400 1040 677 2036 824 2965 93 588 132 1029 106 1207 l-12 86 -95 23 c-113 27 -109 21 -157 232 -4 15 -10 27 -14 27 -4 -1 -41 -21 -82 -46z"/>
<path d="M5064 7113 c-47 -208 -46 -206 -144 -229 -45 -10 -88 -23 -96 -29 -41 -31 -42 -305 -4 -645 126 -1120 362 -2106 788 -3285 129 -359 360 -923 436 -1065 39 -72 144 -196 157 -183 4 4 28 49 52 98 95 191 122 324 114 550 -6 162 -23 252 -92 485 -89 302 -160 495 -304 824 -49 111 -114 264 -146 341 -32 77 -99 221 -148 320 -168 334 -164 324 -266 640 -34 105 -80 235 -101 290 -22 55 -45 129 -50 165 -17 102 -76 372 -115 520 -28 106 -37 161 -41 255 -3 66 -2 137 3 158 l8 38 47 -78 c26 -43 67 -130 90 -193 55 -151 117 -270 239 -465 88 -139 111 -168 174 -220 108 -89 216 -146 377 -200 185 -62 251 -97 299 -158 60 -75 80 -130 86 -229 7 -106 -8 -160 -74 -266 -37 -60 -58 -81 -121 -124 -43 -28 -78 -52 -80 -53 -1 -1 24 -47 56 -101 32 -54 78 -135 102 -179 23 -44 55 -102 70 -130 75 -136 194 -374 221 -443 46 -117 160 -356 336 -707 47 -93 102 -211 123 -262 l37 -92 40 42 c50 53 95 112 119 157 16 29 19 55 18 145 l-1 110 -148 295 c-144 288 -219 426 -316 582 -26 42 -89 153 -138 247 -94 178 -143 260 -193 323 l-30 38 32 92 c58 169 59 257 4 395 -75 191 -194 327 -354 405 -52 26 -140 60 -195 77 l-100 31 -53 103 c-55 108 -65 124 -255 405 -64 95 -117 177 -117 182 0 10 97 -45 295 -168 263 -163 450 -262 625 -332 237 -95 413 -204 561 -350 193 -189 275 -381 294 -681 13 -200 40 -280 146 -429 70 -98 140 -208 224 -350 142 -241 246 -359 433 -489 l32 -22 73 35 c91 44 143 81 250 180 118 108 134 133 146 235 6 47 9 87 6 89 -3 3 -51 -13 -107 -35 -57 -23 -104 -40 -105 -39 -2 1 22 63 52 137 71 171 122 329 146 447 27 132 27 132 -18 125 -99 -14 -217 -61 -322 -127 -22 -14 -42 -26 -45 -26 -2 0 16 50 41 111 60 148 67 232 28 363 -31 108 -99 242 -157 313 -24 28 -74 76 -112 107 -65 51 -230 145 -286 161 -29 9 -27 8 -470 232 -184 93 -374 186 -422 207 -134 59 -222 122 -363 257 -72 68 -153 142 -180 164 -28 22 -52 42 -55 45 -3 3 -39 32 -80 65 -41 33 -201 186 -355 340 -164 164 -307 299 -345 324 -73 50 -256 161 -264 161 -3 0 -8 -12 -12 -27z"/>
<path d="M903 695 c4 -60 12 -126 19 -145 34 -95 144 -202 245 -240 49 -18 75 -21 163 -18 120 3 148 14 330 121 123 72 232 157 287 224 65 79 67 76 -33 71 -83 -4 -97 -8 -209 -60 -157 -73 -187 -78 -256 -42 -30 16 -66 42 -82 59 -33 37 -77 109 -77 127 0 10 -40 13 -196 13 l-197 0 6 -110z"/>
<path d="M7590 792 c0 -18 -44 -90 -77 -127 -16 -17 -52 -43 -82 -59 -69 -36 -99 -31 -256 42 -112 52 -126 56 -209 60 -100 5 -98 8 -33 -71 78 -94 266 -225 443 -309 62 -30 80 -33 174 -36 88 -3 114 0 163 18 101 38 211 145 245 240 7 19 15 85 19 145 l6 110 -197 0 c-156 0 -196 -3 -196 -13z"/>
</g>
<g id="layer104" fill="#a3a2a1" stroke="none">
<path d="M903 693 c8 -125 18 -160 69 -230 48 -67 123 -126 195 -153 49 -18 75 -21 163 -18 90 3 114 7 165 31 68 32 263 145 283 164 7 7 39 33 71 57 48 37 88 79 145 155 8 11 -5 12 -79 9 -84 -4 -98 -8 -210 -60 -157 -73 -187 -78 -256 -42 -63 33 -109 80 -141 146 l-23 47 -194 1 -194 0 6 -107z"/>
<path d="M7572 752 c-32 -66 -78 -113 -141 -146 -69 -36 -99 -31 -256 42 -112 52 -126 56 -210 60 -74 3 -87 2 -79 -9 57 -76 97 -118 145 -155 32 -24 64 -50 71 -57 21 -20 199 -124 274 -159 62 -30 80 -33 174 -36 88 -3 114 0 163 18 72 27 147 86 195 153 51 70 61 105 69 230 l6 107 -194 0 -194 -1 -23 -47z"/>
</g>
<g id="layer105" fill="#edc396" stroke="none">
<path d="M3720 7094 c-207 -126 -240 -154 -525 -439 -154 -155 -314 -308 -356 -341 l-76 -60 15 -30 c13 -28 49 -55 177 -134 35 -22 52 -25 130 -25 80 0 97 4 157 32 202 95 380 307 564 676 l65 130 -24 91 c-14 50 -28 103 -31 119 -4 15 -10 27 -14 27 -4 -1 -41 -21 -82 -46z"/>
<path d="M5064 7113 c-3 -16 -17 -69 -31 -119 l-24 -91 65 -130 c184 -369 362 -581 564 -676 60 -28 77 -32 157 -32 78 0 95 3 130 25 128 79 164 106 177 134 l15 30 -76 60 c-42 33 -202 186 -356 341 -162 162 -307 299 -345 324 -72 49 -256 161 -264 161 -3 0 -8 -12 -12 -27z"/>
<path d="M3215 5606 l-90 -43 -40 -82 -39 -81 -101 -31 c-55 -17 -143 -51 -195 -77 -158 -77 -279 -216 -354 -405 -55 -138 -54 -226 4 -394 l31 -92 -47 -63 c-25 -35 -59 -88 -75 -120 l-28 -56 107 -45 c78 -33 110 -42 120 -35 25 21 112 160 123 197 18 59 5 99 -73 222 -96 154 -112 200 -105 314 6 102 25 156 85 232 49 61 105 91 289 154 161 55 243 95 343 169 116 86 172 156 164 204 -10 61 -14 76 -22 76 -4 -1 -47 -20 -97 -44z"/>
<path d="M5556 5628 c-15 -72 -14 -84 11 -123 33 -52 149 -147 251 -206 45 -25 143 -67 224 -94 185 -62 251 -97 299 -158 61 -76 80 -130 86 -232 7 -114 -9 -160 -105 -314 -39 -62 -74 -129 -78 -148 -9 -49 9 -102 62 -180 76 -113 63 -109 186 -56 l107 45 -28 56 c-16 32 -50 85 -75 120 l-47 63 31 92 c58 168 59 256 4 394 -75 191 -194 327 -354 405 -52 26 -140 60 -195 77 l-101 31 -39 81 -40 82 -92 44 c-51 24 -95 43 -98 43 -2 0 -7 -10 -9 -22z"/>
<path d="M1695 5489 c-27 -11 -144 -51 -258 -89 -378 -126 -536 -237 -652 -461 -24 -47 -56 -125 -70 -175 -39 -131 -32 -215 28 -363 25 -61 43 -111 41 -111 -3 0 -23 12 -45 26 -105 66 -223 113 -322 127 -45 7 -45 7 -18 -125 24 -118 75 -276 146 -447 30 -74 54 -136 52 -137 -1 -1 -45 15 -97 36 -121 50 -123 50 -116 3 3 -21 8 -62 12 -91 5 -44 14 -63 54 -111 41 -50 58 -62 120 -85 39 -14 77 -26 83 -26 7 0 26 58 46 143 84 346 142 517 256 752 154 316 322 569 562 847 97 114 220 266 237 296 10 16 0 15 -59 -9z"/>
<path d="M7126 5498 c17 -30 140 -182 237 -296 240 -278 408 -531 562 -847 116 -239 169 -395 256 -752 21 -87 39 -143 46 -143 29 0 150 53 175 77 58 55 76 94 87 182 6 47 9 87 6 89 -3 3 -51 -13 -107 -35 -57 -23 -104 -40 -105 -39 -2 1 22 63 52 137 71 171 122 329 146 447 27 132 27 132 -18 125 -99 -14 -217 -61 -322 -127 -22 -14 -42 -26 -45 -26 -2 0 16 50 41 111 60 148 67 232 28 363 -31 108 -99 242 -157 313 -109 131 -274 228 -537 313 -97 32 -213 72 -259 89 -95 35 -96 35 -86 19z"/>
<path d="M2660 4638 c-35 -95 -36 -91 42 -103 45 -7 45 -6 52 25 12 62 8 75 -29 93 -48 23 -51 22 -65 -15z"/>
<path d="M6153 4653 c-35 -17 -39 -32 -27 -93 7 -31 7 -32 52 -25 74 11 73 9 50 76 -11 32 -25 59 -31 58 -7 0 -27 -8 -44 -16z"/>
<path d="M903 693 c8 -125 18 -160 69 -230 48 -67 123 -126 195 -153 49 -18 75 -21 163 -18 90 3 114 7 165 31 69 32 265 146 280 163 6 6 39 33 73 60 35 26 84 73 108 104 l44 55 -63 3 c-75 4 -110 -6 -247 -68 -142 -65 -173 -69 -241 -34 -63 33 -109 80 -141 146 l-23 47 -194 1 -194 0 6 -107z"/>
<path d="M7572 752 c-32 -66 -78 -113 -141 -146 -68 -35 -99 -31 -241 34 -137 62 -172 72 -247 68 l-63 -3 44 -55 c24 -31 73 -78 108 -104 34 -27 68 -54 73 -60 16 -18 194 -122 271 -158 62 -30 80 -33 174 -36 88 -3 114 0 163 18 72 27 147 86 195 153 51 70 61 105 69 230 l6 107 -194 0 -194 -1 -23 -47z"/>
</g>
<g id="layer106" fill="#fcfcfc" stroke="none">
<path d="M4345 7930 c-137 -15 -397 -124 -548 -229 -40 -28 -110 -86 -157 -128 -47 -43 -157 -137 -245 -209 -109 -90 -275 -246 -525 -495 -362 -362 -472 -463 -666 -615 -56 -43 -144 -114 -197 -157 -139 -113 -244 -172 -472 -267 -36 -15 -117 -43 -154 -53 -20 -5 -193 -13 -386 -17 -382 -8 -390 -9 -514 -72 -108 -56 -191 -172 -226 -319 -28 -122 -15 -379 26 -507 6 -18 9 -36 6 -39 -10 -10 -93 35 -159 85 -47 36 -76 52 -98 52 -35 0 -34 19 -20 -250 7 -130 14 -189 29 -230 41 -117 81 -219 130 -333 28 -65 51 -123 51 -128 0 -5 -48 -6 -112 -2 l-111 6 7 -65 c17 -170 88 -342 281 -679 158 -276 200 -337 310 -459 112 -122 113 -128 71 -253 -32 -96 -108 -286 -162 -404 -103 -228 -190 -517 -214 -713 -7 -52 -19 -122 -27 -155 -11 -42 -17 -137 -20 -317 -4 -213 -3 -272 11 -348 21 -111 55 -218 92 -285 41 -74 176 -203 260 -247 104 -55 248 -98 328 -98 124 0 500 158 731 307 210 137 327 246 480 449 69 91 150 185 206 237 l91 87 31 -18 c17 -9 78 -62 136 -117 165 -156 459 -337 721 -444 347 -141 492 -185 725 -220 300 -46 470 -46 770 0 233 35 378 79 725 220 262 107 556 288 721 444 58 55 119 108 136 117 l31 18 91 -87 c56 -52 137 -146 206 -237 153 -203 270 -312 480 -449 231 -149 607 -307 731 -307 80 0 224 43 328 98 84 44 219 173 260 247 37 67 71 174 92 286 14 76 16 134 11 348 -3 181 -9 272 -20 311 -8 30 -20 100 -27 155 -25 207 -112 493 -222 734 -47 102 -144 348 -167 424 -26 87 -20 103 84 217 110 122 152 183 310 459 193 337 264 509 281 679 l7 65 -111 -6 c-64 -4 -112 -3 -112 2 0 5 23 63 51 128 49 114 89 216 130 333 15 41 22 100 29 230 14 269 15 250 -20 250 -21 0 -51 -15 -96 -50 -65 -50 -151 -96 -161 -86 -3 2 0 20 6 38 41 128 54 385 26 507 -35 147 -118 263 -226 319 -124 63 -132 64 -514 72 -192 4 -366 12 -385 17 -137 40 -329 122 -449 192 -40 24 -130 89 -199 145 -69 55 -159 128 -201 160 -163 126 -290 244 -646 599 -247 247 -418 408 -515 487 -80 64 -188 156 -240 204 -121 110 -212 173 -347 240 -136 68 -275 114 -378 126 -87 11 -91 11 -180 0z m329 -73 c220 -75 377 -166 536 -312 52 -48 160 -139 240 -203 101 -80 264 -234 535 -503 425 -421 460 -454 645 -600 69 -54 159 -126 200 -159 167 -137 322 -223 540 -300 155 -55 235 -64 484 -56 208 6 339 -2 416 -26 130 -40 219 -110 269 -213 56 -114 65 -156 65 -310 0 -124 -4 -154 -32 -264 -18 -68 -32 -128 -32 -133 0 -16 69 1 136 33 33 17 84 50 112 75 l52 46 0 -149 c0 -200 -20 -278 -142 -563 -67 -156 -99 -242 -93 -248 3 -3 58 0 121 7 64 7 118 11 120 9 7 -8 -46 -209 -72 -277 -35 -87 -94 -205 -159 -316 -29 -49 -81 -139 -115 -200 -88 -154 -147 -238 -225 -325 -106 -117 -125 -147 -125 -195 0 -64 68 -258 175 -495 124 -275 200 -528 230 -762 9 -68 20 -130 24 -139 14 -25 24 -181 24 -394 1 -172 -2 -212 -21 -286 -29 -116 -65 -210 -101 -262 -47 -69 -161 -169 -236 -209 -88 -46 -231 -88 -299 -88 -123 0 -477 152 -716 307 -225 147 -328 244 -476 449 -86 119 -183 225 -259 284 l-57 44 -42 -23 c-24 -12 -87 -65 -142 -117 -120 -115 -357 -275 -552 -373 -74 -37 -434 -181 -537 -215 -446 -145 -1004 -145 -1450 0 -103 34 -463 178 -537 215 -195 98 -432 258 -552 373 -55 52 -118 105 -142 117 l-42 23 -57 -44 c-76 -59 -173 -165 -259 -284 -148 -205 -251 -302 -476 -449 -239 -155 -593 -307 -716 -307 -68 0 -211 42 -299 88 -75 40 -189 140 -236 209 -36 52 -72 146 -101 262 -19 74 -22 114 -21 286 0 213 10 369 24 394 4 9 15 71 24 139 30 234 106 487 230 762 107 237 175 431 175 495 0 48 -19 78 -125 195 -78 87 -137 171 -225 325 -34 61 -86 151 -115 200 -65 111 -124 229 -159 316 -26 68 -79 269 -72 277 2 2 56 -2 120 -9 63 -7 118 -10 121 -7 6 6 -26 92 -93 248 -122 285 -142 363 -142 563 l0 149 52 -46 c28 -25 79 -58 112 -75 67 -32 136 -49 136 -33 0 5 -14 65 -32 133 -28 110 -32 140 -32 264 0 154 9 196 65 310 50 103 139 173 269 213 77 24 208 32 416 26 249 -8 329 1 484 56 218 77 373 163 540 300 41 33 131 105 200 159 185 146 220 179 645 600 273 271 434 422 536 504 80 64 182 149 226 190 143 132 258 207 423 276 178 74 251 91 375 88 96 -3 124 -8 219 -40z"/>
</g>


</svg>